<svg width="192" height="133" viewBox="0 0 192 133" fill="none" xmlns="http://www.w3.org/2000/svg">
<path fill-rule="evenodd" clip-rule="evenodd" d="M90.1737 27.93L86.2297 40.8975L90.1737 38.2375V27.93Z" fill="white"/>
<path fill-rule="evenodd" clip-rule="evenodd" d="M101.289 27.93L105.232 40.8975L101.289 38.2375V27.93Z" fill="white"/>
<path d="M105.232 40.8975L109.894 43.5575C114.238 58.6191 119.933 64.505 137.86 64.505C150.768 60.1825 157.151 57.5129 155.429 31.5875L154.353 29.0803L146.824 30.59L141.804 31.834C141.804 31.834 155.388 45.534 133.199 53.2C114.913 59.5175 113.479 38.8538 113.479 38.8538L105.232 40.8975Z" fill="white"/>
<path d="M126.028 39.9C127.81 39.5327 129.755 40.5464 129.972 42.2275C130.208 44.06 127.968 45.63 126.028 45.22C124.471 44.8911 123.32 43.6966 123.518 42.2275C123.69 40.952 124.675 40.1789 126.028 39.9Z" fill="white"/>
<path d="M81.5686 43.5575L86.2297 40.8975L77.9832 38.8538C77.9832 38.8538 76.1905 61.5125 57.9048 55.195C35.7159 47.529 49.6583 31.834 49.6583 31.834L44.6387 30.59L37.1092 29.0803L36.0336 31.5875C34.3108 57.5129 40.6947 60.1825 53.6022 64.505C71.5294 64.505 77.2237 58.6191 81.5686 43.5575Z" fill="white"/>
<path d="M65.4342 39.9C63.652 39.5327 61.7069 40.5464 61.4902 42.2275C61.2539 44.06 63.4938 45.63 65.4342 45.22C66.9908 44.8911 68.142 43.6966 67.944 42.2275C67.7721 40.952 66.7873 40.1789 65.4342 39.9Z" fill="white"/>
<path fill-rule="evenodd" clip-rule="evenodd" d="M15.0588 35.5L22.0504 33.915L33.8824 15.295L31.3726 27.93L36.0336 28.8646L35 31.5875C35 31.5875 26 61.5 53.6022 66C76.2523 69.6926 84.5 43.5575 84.5 43.5575L86.2297 40.8975L90.1737 38.2375V27.93L49.6583 17.6225L33.8824 15.295L56.4706 1.33L95.5518 0L109.133 0.458004L101.289 27.93V38.2375L105.232 40.8975C108.961 43.0255 111.538 55.5192 112.36 61.5L111.672 62.6666L110 65.5L109.133 75.5L108.101 118.038V130.008L104.157 133H95.5518H87.3053L83.3613 130.008V118.038L82.3287 75.5L81.5686 64.505L77.9832 61.5L79.1019 75.5L79.1018 85.12L61.4902 87.4475L53.6022 94.43L61.4902 92.1025L79.7903 90.44L82.3287 110.058L83.3613 118.038L38.1849 103.74L36.0336 85.12L22.0504 104.068L0 85.12L15.0588 35.5ZM156.863 81.43L154.353 103.74L108.101 118.038L109.133 110.058L111.672 90.44L134.992 97.4225L133.199 90.44L111.672 85.12V75.5L112.285 63.0321L133.199 75.5V81.43L141.804 97.4225H146.824L151 81.43H156.863ZM156.863 81.43L164.5 53.2L163.496 24.605L169.412 33.915L177.658 38.2375L192 85.12L169.412 104.068L156.863 81.43Z" fill="white"/>
</svg>
