<svg width="20" height="20" viewBox="0 0 20 20" fill="none" xmlns="http://www.w3.org/2000/svg">
<path d="M19.7066 15.2934C19.7502 15.3369 19.7848 15.3886 19.8084 15.4455C19.832 15.5024 19.8441 15.5634 19.8441 15.625C19.8441 15.6866 19.832 15.7476 19.8084 15.8045C19.7848 15.8614 19.7502 15.9131 19.7066 15.9566L15.9566 19.7066C15.8687 19.7946 15.7494 19.844 15.625 19.844C15.5006 19.844 15.3813 19.7946 15.2934 19.7066C15.2054 19.6187 15.156 19.4994 15.156 19.375C15.156 19.2506 15.2054 19.1313 15.2934 19.0434L18.243 16.0938H0.625003C0.500682 16.0938 0.381454 16.0444 0.293546 15.9565C0.205639 15.8685 0.156253 15.7493 0.156253 15.625C0.156253 15.5007 0.205639 15.3815 0.293546 15.2935C0.381454 15.2056 0.500682 15.1563 0.625003 15.1563H18.243L15.2934 12.2066C15.2054 12.1187 15.156 11.9994 15.156 11.875C15.156 11.7506 15.2054 11.6313 15.2934 11.5434C15.3813 11.4554 15.5006 11.406 15.625 11.406C15.7494 11.406 15.8687 11.4554 15.9566 11.5434L19.7066 15.2934ZM4.04336 8.45664C4.08691 8.50019 4.13862 8.53474 4.19552 8.55831C4.25242 8.58188 4.31341 8.59401 4.375 8.59401C4.43659 8.59401 4.49758 8.58188 4.55449 8.55831C4.61139 8.53474 4.66309 8.50019 4.70664 8.45664C4.7502 8.41309 4.78474 8.36139 4.80831 8.30448C4.83188 8.24758 4.84401 8.18659 4.84401 8.125C4.84401 8.06341 4.83188 8.00242 4.80831 7.94552C4.78474 7.88862 4.7502 7.83691 4.70664 7.79336L1.75703 4.84375H19.375C19.4993 4.84375 19.6186 4.79436 19.7065 4.70646C19.7944 4.61855 19.8438 4.49932 19.8438 4.375C19.8438 4.25068 19.7944 4.13145 19.7065 4.04354C19.6186 3.95564 19.4993 3.90625 19.375 3.90625H1.75703L4.70664 0.956641C4.7502 0.913089 4.78474 0.861386 4.80831 0.804483C4.83188 0.74758 4.84401 0.686592 4.84401 0.625C4.84401 0.563409 4.83188 0.502421 4.80831 0.445518C4.78474 0.388615 4.7502 0.336911 4.70664 0.293359C4.66309 0.249808 4.61139 0.215261 4.55449 0.191691C4.49758 0.168121 4.43659 0.15599 4.375 0.15599C4.31341 0.15599 4.25242 0.168121 4.19552 0.191691C4.13862 0.215261 4.08691 0.249808 4.04336 0.293359L0.293362 4.04336C0.249779 4.08689 0.215205 4.13859 0.191615 4.1955C0.168026 4.2524 0.155884 4.3134 0.155884 4.375C0.155884 4.4366 0.168026 4.4976 0.191615 4.5545C0.215205 4.61141 0.249779 4.66311 0.293362 4.70664L4.04336 8.45664Z" />
</svg>
