<svg width="22" height="21" viewBox="0 0 22 21" fill="none" xmlns="http://www.w3.org/2000/svg">
<g clip-path="url(#clip0_79_1664)">
<path fill-rule="evenodd" clip-rule="evenodd" d="M11.0001 1.61792C6.09462 1.61792 2.11798 5.59456 2.11798 10.5C2.11798 15.4054 6.09462 19.3821 11.0001 19.3821C15.9055 19.3821 19.8821 15.4054 19.8821 10.5C19.8821 5.59456 15.9055 1.61792 11.0001 1.61792ZM0.467041 10.5C0.467041 4.68277 5.18283 -0.03302 11.0001 -0.03302C16.8173 -0.03302 21.5331 4.68277 21.5331 10.5C21.5331 16.3172 16.8173 21.033 11.0001 21.033C5.18283 21.033 0.467041 16.3172 0.467041 10.5Z" />
<path d="M12.8491 14C12.783 13.934 12.783 13.8019 12.717 13.6698C12.717 13.5377 12.651 13.4057 12.651 13.2736C12.5189 13.4057 12.3868 13.4717 12.2547 13.6038C12.1227 13.7359 11.9245 13.8019 11.7925 13.8679C11.5944 13.934 11.4623 14 11.1981 14.066C11 14.1321 10.7359 14.1321 10.5378 14.1321C10.1415 14.1321 9.81134 14.066 9.48115 13.934C9.15096 13.8019 8.88681 13.6698 8.62266 13.4717C8.3585 13.2736 8.22643 13.0094 8.09435 12.7453C7.96228 12.4811 7.89624 12.1509 7.89624 11.8208C7.89624 11.0283 8.22643 10.3679 8.82077 9.9717C9.41511 9.50943 10.3396 9.31132 11.5283 9.31132H12.651V8.84906C12.651 8.45283 12.5189 8.18868 12.3208 7.99057C12.0566 7.79245 11.7264 7.66038 11.2642 7.66038C10.8679 7.66038 10.6038 7.72642 10.4057 7.92453C10.2076 8.12264 10.1415 8.32076 10.1415 8.58491H8.16039C8.16039 8.25472 8.22643 7.92453 8.3585 7.66038C8.49058 7.39623 8.68869 7.13208 9.01888 6.86792C9.28303 6.66981 9.61322 6.4717 10.0094 6.33962C10.4057 6.20755 10.8679 6.14151 11.3962 6.14151C11.8585 6.14151 12.2547 6.20755 12.651 6.33962C13.0472 6.4717 13.3774 6.60377 13.7076 6.86792C13.9717 7.06604 14.2359 7.39623 14.3679 7.72642C14.5 8.0566 14.6321 8.45283 14.6321 8.91509V12.217C14.6321 12.6132 14.6321 12.9434 14.6981 13.2075C14.7642 13.4717 14.8302 13.7358 14.8962 13.8679V14H12.8491ZM10.934 12.6132C11.1321 12.6132 11.3302 12.6132 11.4623 12.5472C11.6604 12.4811 11.7925 12.4151 11.9245 12.3491C12.0566 12.283 12.1887 12.217 12.2547 12.0849C12.3208 12.0189 12.4528 11.8868 12.5189 11.8208V10.5H11.5283C11.1981 10.5 10.934 10.5 10.7359 10.566C10.5378 10.6321 10.3396 10.6981 10.2076 10.8302C10.0755 10.9623 9.94341 11.0283 9.87737 11.2264C9.81133 11.3585 9.81134 11.5566 9.81134 11.6887C9.81134 11.9528 9.87737 12.1509 10.0755 12.3491C10.2736 12.5472 10.6038 12.6132 10.934 12.6132Z" />
</g>
<defs>
<clipPath id="clip0_79_1664">
<rect width="21" height="21"  transform="translate(0.5)"/>
</clipPath>
</defs>
</svg>
