<svg width="57" height="64" viewBox="0 0 57 64" fill="none" xmlns="http://www.w3.org/2000/svg">
<path d="M7.92935 22.5185C8.14331 29.9238 8.16815 34.0766 7.92935 41.4815C7.92935 42.4245 7.54677 43.3288 6.86576 43.9956C6.18475 44.6624 5.26111 45.037 4.29802 45.037C3.33493 45.037 2.41129 44.6624 1.73028 43.9956C1.04927 43.3288 0.666687 42.4245 0.666687 41.4815V22.5185C0.666687 21.5755 1.04927 20.6712 1.73028 20.0044C2.41129 19.3376 3.33493 18.963 4.29802 18.963C5.26111 18.963 6.18475 19.3376 6.86576 20.0044C7.54677 20.6712 7.92935 21.5755 7.92935 22.5185ZM16.4025 0C15.4394 0 14.5157 0.374602 13.8347 1.0414C13.1537 1.70819 12.7711 2.61256 12.7711 3.55556V60.4444C12.7711 61.3874 13.1537 62.2918 13.8347 62.9586C14.5157 63.6254 15.4394 64 16.4025 64C17.3656 64 18.2892 63.6254 18.9702 62.9586C19.6512 62.2918 20.0338 61.3874 20.0338 60.4444C19.1905 38.9618 18.9281 26.7323 20.0338 3.55556C20.0338 2.61256 19.6512 1.70819 18.9702 1.0414C18.2892 0.374602 17.3656 0 16.4025 0ZM28.5069 9.48148C27.5438 9.48148 26.6202 9.85608 25.9392 10.5229C25.2582 11.1897 24.8756 12.094 24.8756 13.037C25.7191 28.2121 25.7661 36.5363 24.8756 50.963C24.8756 51.906 25.2582 52.8103 25.9392 53.4771C26.6202 54.1439 27.5438 54.5185 28.5069 54.5185C29.47 54.5185 30.3936 54.1439 31.0746 53.4771C31.7557 52.8103 32.1382 51.906 32.1382 50.963V13.037C32.1382 12.094 31.7557 11.1897 31.0746 10.5229C30.3936 9.85608 29.47 9.48148 28.5069 9.48148ZM40.6114 18.963C39.6483 18.963 38.7246 19.3376 38.0436 20.0044C37.3626 20.6712 36.98 21.5755 36.98 22.5185V41.4815C36.98 42.4245 37.3626 43.3288 38.0436 43.9956C38.7246 44.6624 39.6483 45.037 40.6114 45.037C41.5744 45.037 42.4981 44.6624 43.1791 43.9956C43.8601 43.3288 44.2427 42.4245 44.2427 41.4815V22.5185C44.2427 21.5755 43.8601 20.6712 43.1791 20.0044C42.4981 19.3376 41.5744 18.963 40.6114 18.963ZM52.7158 14.2222C51.7527 14.2222 50.8291 14.5968 50.1481 15.2636C49.4671 15.9304 49.0845 16.8348 49.0845 17.7778C48.6571 28.5236 48.7062 34.7946 49.0845 46.2222C49.0845 47.1652 49.4671 48.0696 50.1481 48.7364C50.8291 49.4032 51.7527 49.7778 52.7158 49.7778C53.6789 49.7778 54.6025 49.4032 55.2835 48.7364C55.9645 48.0696 56.3471 47.1652 56.3471 46.2222C56.7571 35.4438 56.789 29.2325 56.3471 17.7778C56.3471 16.8348 55.9645 15.9304 55.2835 15.2636C54.6025 14.5968 53.6789 14.2222 52.7158 14.2222Z" fill="#444C62"/>
</svg>
