<svg width="830" height="830" viewBox="0 0 830 830" fill="none" xmlns="http://www.w3.org/2000/svg">
<g clip-path="url(#clip0_4916_6984)">
<rect width="830" height="830" rx="415" fill="#1D2BC2"/>
<path opacity="0.1" d="M415 73.3457C227.141 73.3457 74.9098 225.577 74.9098 413.436C74.9098 601.295 227.141 753.526 415 753.526C602.859 753.526 755.09 601.295 755.09 413.436C755.09 225.577 602.764 73.3457 415 73.3457Z" fill="white"/>
<path d="M415 157.178C273.439 157.178 158.742 271.875 158.742 413.436C158.742 554.998 273.439 669.695 415 669.695C556.561 669.695 671.258 554.998 671.258 413.436C671.258 271.875 556.466 157.178 415 157.178Z" fill="white"/>
<path fill-rule="evenodd" clip-rule="evenodd" d="M349.84 318.268H402.52V345.989H349.84V318.268Z" fill="#1D2BC2"/>
<path d="M293.825 427.535H535.889L524.839 477.644L619.245 900.423H214.09L306.209 478.025L293.825 427.535Z" fill="#1D2BC2"/>
<path fill-rule="evenodd" clip-rule="evenodd" d="M302.113 303.788H331.073V372.092H280.774L291.253 413.15H538.842L549.321 372.092H499.022V303.788H527.982L415.095 231.197L302.113 303.788Z" fill="#1D2BC2"/>
<path d="M491.877 572.526L322.499 589.578L340.123 485.836H476.635L491.877 572.526Z" fill="white"/>
<path d="M549.321 902.137H269.247L310.02 662.931L504.262 643.497L549.321 902.137Z" fill="white"/>
<path fill-rule="evenodd" clip-rule="evenodd" d="M361.557 303.598V317.887H402.52V345.609H361.557V371.806H451.39V303.598H361.557Z" fill="white"/>
</g>
<defs>
<clipPath id="clip0_4916_6984">
<rect width="830" height="830" rx="415" fill="white"/>
</clipPath>
</defs>
</svg>
