<svg width="29" height="25" viewBox="0 0 29 25" fill="none" xmlns="http://www.w3.org/2000/svg">
<path d="M15.5 13V20C15.5 20.2652 15.3946 20.5196 15.2071 20.7071C15.0196 20.8946 14.7652 21 14.5 21C14.2348 21 13.9804 20.8946 13.7929 20.7071C13.6053 20.5196 13.5 20.2652 13.5 20V13C13.5 12.7348 13.6053 12.4804 13.7929 12.2929C13.9804 12.1054 14.2348 12 14.5 12C14.7652 12 15.0196 12.1054 15.2071 12.2929C15.3946 12.4804 15.5 12.7348 15.5 13ZM28.4825 10.2637L26.75 23.265C26.6857 23.7455 26.4492 24.1863 26.0843 24.5054C25.7194 24.8246 25.251 25.0003 24.7662 25H4.23373C3.74896 25.0003 3.28057 24.8246 2.91567 24.5054C2.55078 24.1863 2.31421 23.7455 2.24998 23.265L0.51623 10.265C0.478449 9.98237 0.501539 9.69493 0.583951 9.42196C0.666363 9.14898 0.806192 8.89679 0.994061 8.68228C1.18193 8.46778 1.41349 8.29593 1.67322 8.17825C1.93295 8.06058 2.21484 7.9998 2.49998 8H7.04623L13.75 0.341248C13.8438 0.234841 13.9592 0.149621 14.0885 0.0912476C14.2179 0.0328746 14.3581 0.00268555 14.5 0.00268555C14.6419 0.00268555 14.7821 0.0328746 14.9114 0.0912476C15.0407 0.149621 15.1561 0.234841 15.25 0.341248L21.9537 8H26.5C26.7848 8.00018 27.0663 8.06119 27.3256 8.17895C27.5849 8.2967 27.8161 8.46849 28.0037 8.68281C28.1913 8.89713 28.3309 9.14904 28.4133 9.42169C28.4956 9.69433 28.5188 9.98142 28.4812 10.2637H28.4825ZM9.70373 8H19.2962L14.5 2.51875L9.70373 8ZM26.5 10H2.49998L4.23373 23H24.7662L26.5 10ZM20.105 12.9L19.405 19.9C19.3911 20.0311 19.4034 20.1636 19.4409 20.2899C19.4785 20.4162 19.5406 20.5339 19.6238 20.6361C19.7069 20.7383 19.8095 20.8231 19.9256 20.8855C20.0416 20.948 20.1688 20.9869 20.3 21C20.3337 21.0018 20.3675 21.0018 20.4012 21C20.6489 20.9997 20.8877 20.9075 21.0713 20.7412C21.2549 20.5749 21.3702 20.3464 21.395 20.1L22.095 13.1C22.1215 12.8361 22.0421 12.5725 21.8743 12.3671C21.7064 12.1618 21.4639 12.0315 21.2 12.005C20.9361 11.9785 20.6725 12.0579 20.4671 12.2257C20.2618 12.3936 20.1315 12.6361 20.105 12.9ZM8.89498 12.9C8.86846 12.6361 8.73819 12.3936 8.53284 12.2257C8.32749 12.0579 8.06387 11.9785 7.79998 12.005C7.53609 12.0315 7.29354 12.1618 7.1257 12.3671C6.95785 12.5725 6.87846 12.8361 6.90498 13.1L7.60498 20.1C7.62985 20.3475 7.74609 20.5769 7.931 20.7433C8.11591 20.9097 8.35621 21.0012 8.60498 21C8.63871 21.0018 8.67251 21.0018 8.70623 21C8.8369 20.9869 8.9637 20.9481 9.07939 20.886C9.19509 20.8239 9.29741 20.7395 9.38052 20.6379C9.46363 20.5362 9.52589 20.4191 9.56376 20.2934C9.60163 20.1676 9.61436 20.0357 9.60123 19.905L8.89498 12.9Z" />
</svg>
