<svg width="26" height="24" viewBox="0 0 26 24" fill="none" xmlns="http://www.w3.org/2000/svg">
<path d="M24 0.5H2C1.60217 0.5 1.22064 0.658035 0.939338 0.93934C0.658033 1.22064 0.499998 1.60218 0.499998 2V22C0.498222 22.286 0.579007 22.5665 0.73266 22.8077C0.886313 23.0489 1.10631 23.2407 1.36625 23.36C1.56497 23.4517 1.78114 23.4995 2 23.5C2.35221 23.4997 2.69287 23.3743 2.96125 23.1462L2.96875 23.1388L6.98625 19.6175C7.0775 19.5407 7.19321 19.499 7.3125 19.5H24C24.3978 19.5 24.7794 19.342 25.0607 19.0607C25.342 18.7794 25.5 18.3978 25.5 18V2C25.5 1.60218 25.342 1.22064 25.0607 0.93934C24.7794 0.658035 24.3978 0.5 24 0.5ZM24.5 18C24.5 18.1326 24.4473 18.2598 24.3536 18.3536C24.2598 18.4473 24.1326 18.5 24 18.5H7.3125C6.95576 18.501 6.61087 18.6281 6.33875 18.8587L2.31875 22.3838C2.24574 22.4442 2.15707 22.4826 2.06307 22.4945C1.96906 22.5065 1.8736 22.4915 1.7878 22.4513C1.70199 22.411 1.62939 22.3473 1.57843 22.2674C1.52748 22.1875 1.50028 22.0948 1.5 22V2C1.5 1.86739 1.55268 1.74021 1.64644 1.64645C1.74021 1.55268 1.86739 1.5 2 1.5H24C24.1326 1.5 24.2598 1.55268 24.3536 1.64645C24.4473 1.74021 24.5 1.86739 24.5 2V18ZM17.5 8C17.5 8.13261 17.4473 8.25979 17.3536 8.35355C17.2598 8.44732 17.1326 8.5 17 8.5H9C8.86739 8.5 8.74021 8.44732 8.64644 8.35355C8.55268 8.25979 8.5 8.13261 8.5 8C8.5 7.86739 8.55268 7.74021 8.64644 7.64645C8.74021 7.55268 8.86739 7.5 9 7.5H17C17.1326 7.5 17.2598 7.55268 17.3536 7.64645C17.4473 7.74021 17.5 7.86739 17.5 8ZM17.5 12C17.5 12.1326 17.4473 12.2598 17.3536 12.3536C17.2598 12.4473 17.1326 12.5 17 12.5H9C8.86739 12.5 8.74021 12.4473 8.64644 12.3536C8.55268 12.2598 8.5 12.1326 8.5 12C8.5 11.8674 8.55268 11.7402 8.64644 11.6464C8.74021 11.5527 8.86739 11.5 9 11.5H17C17.1326 11.5 17.2598 11.5527 17.3536 11.6464C17.4473 11.7402 17.5 11.8674 17.5 12Z" />
</svg>
