<svg width="16" height="13" viewBox="0 0 16 13" fill="none" xmlns="http://www.w3.org/2000/svg">
<path d="M14.75 2H13.25V1.5C13.25 1.23478 13.1446 0.98043 12.9571 0.792893C12.7696 0.605357 12.5152 0.5 12.25 0.5H4.25C3.98478 0.5 3.73043 0.605357 3.54289 0.792893C3.35536 0.98043 3.25 1.23478 3.25 1.5V2H1.75C1.48478 2 1.23043 2.10536 1.04289 2.29289C0.855357 2.48043 0.75 2.73478 0.75 3V4C0.75 4.66304 1.01339 5.29893 1.48223 5.76777C1.71438 5.99991 1.98998 6.18406 2.29329 6.3097C2.59661 6.43534 2.9217 6.5 3.25 6.5H3.47813C3.77265 7.43338 4.33423 8.26001 5.09344 8.87771C5.85265 9.49541 6.77622 9.8771 7.75 9.97563V11.5H6.25C6.11739 11.5 5.99021 11.5527 5.89645 11.6464C5.80268 11.7402 5.75 11.8674 5.75 12C5.75 12.1326 5.80268 12.2598 5.89645 12.3536C5.99021 12.4473 6.11739 12.5 6.25 12.5H10.25C10.3826 12.5 10.5098 12.4473 10.6036 12.3536C10.6973 12.2598 10.75 12.1326 10.75 12C10.75 11.8674 10.6973 11.7402 10.6036 11.6464C10.5098 11.5527 10.3826 11.5 10.25 11.5H8.75V9.97375C10.7463 9.77188 12.4025 8.37125 13.005 6.5H13.25C13.913 6.5 14.5489 6.23661 15.0178 5.76777C15.4866 5.29893 15.75 4.66304 15.75 4V3C15.75 2.73478 15.6446 2.48043 15.4571 2.29289C15.2696 2.10536 15.0152 2 14.75 2ZM3.25 5.5C2.85218 5.5 2.47064 5.34196 2.18934 5.06066C1.90804 4.77936 1.75 4.39782 1.75 4V3H3.25V5C3.25 5.16667 3.25813 5.33333 3.27437 5.5H3.25ZM12.25 4.94375C12.25 7.16375 10.4694 8.98375 8.28063 9H8.25C7.18913 9 6.17172 8.57857 5.42157 7.82843C4.67143 7.07828 4.25 6.06087 4.25 5V1.5H12.25V4.94375ZM14.75 4C14.75 4.39782 14.592 4.77936 14.3107 5.06066C14.0294 5.34196 13.6478 5.5 13.25 5.5H13.2188C13.2393 5.31529 13.2497 5.1296 13.25 4.94375V3H14.75V4Z" />
</svg>
