<svg viewBox="0 0 24 24" fill="none" xmlns="http://www.w3.org/2000/svg">
<path d="M10.1045 11.1225C10.437 11.1242 10.7723 11.1346 11.1095 11.154C11.1089 10.8686 11.1076 10.5788 11.105 10.2848C10.768 10.2659 10.4327 10.2548 10.0997 10.2514C10.1023 10.5439 10.1037 10.8342 10.1045 11.1225Z" />
<path d="M0.137886 13.2959C-0.384944 13.7816 0.678703 14.4835 1.65817 14.34C4.71251 13.8927 7.50905 13.9736 10.1279 14.1399C10.1207 13.8516 10.116 13.5612 10.1128 13.2687C7.64637 13.1138 4.89426 13.0307 1.92959 13.3919C3.82175 11.9365 6.82825 11.1058 10.1045 11.1225C10.1037 10.8342 10.1023 10.5439 10.0997 10.2514C5.99349 10.2097 2.24702 11.3368 0.137886 13.2959Z" />
<path d="M11.105 10.2848C11.1076 10.5788 11.1089 10.8686 11.1095 11.154C11.209 11.1597 11.3087 11.1662 11.4084 11.1735L13.6282 11.3355V10.5225C13.6282 10.5036 13.6281 10.4847 13.6281 10.4658L11.4736 10.3086C11.3506 10.2996 11.2277 10.2917 11.105 10.2848Z" />
<path d="M13.6282 10.5225V11.3355L14.6315 11.4087V10.5391L13.6281 10.4658C13.6281 10.4847 13.6282 10.5036 13.6282 10.5225Z" />
<path d="M14.6315 10.5225C14.6315 6.31529 13.0676 2.45276 10.5673 0.484704C9.86966 -0.0643885 9.02288 1.21024 9.28684 2.31648C9.96147 5.14382 10.0773 7.77512 10.0997 10.2514C10.4327 10.2548 10.768 10.2659 11.105 10.2848C11.0827 7.76446 10.9617 4.93493 10.2604 1.93576C12.3262 3.67286 13.6144 6.9253 13.6281 10.4658L14.6315 10.5391V10.5225Z" />
<path d="M14.6315 11.4087L13.6282 11.3355V13.5108C13.9691 13.5318 14.3033 13.5502 14.6315 13.5651V11.4087Z" />
<path d="M11.1095 11.154C10.7723 11.1346 10.437 11.1242 10.1045 11.1225C10.1051 11.3212 10.1054 11.5189 10.1057 11.7156C10.1057 11.7168 10.1057 11.7179 10.1057 11.7191V11.7192V11.7194V11.7196V11.7197V11.7199V11.72V11.7202V11.7204C10.1065 12.2432 10.1073 12.7592 10.1128 13.2687C10.4531 13.2901 10.7879 13.3128 11.1171 13.3359C11.1113 12.8382 11.1109 12.3222 11.1104 11.7893C11.1102 11.5801 11.11 11.3683 11.1095 11.154Z" />
<path d="M13.6282 13.5108C13.5581 13.5065 13.4878 13.5021 13.4171 13.4976C12.9339 13.4666 12.435 13.4306 11.9211 13.3935L11.9206 13.3934L11.9204 13.3934L11.9197 13.3934L11.9181 13.3933C11.9171 13.3932 11.916 13.3931 11.915 13.393C11.9129 13.3929 11.9108 13.3927 11.9087 13.3926C11.9043 13.3923 11.9 13.3919 11.8956 13.3916C11.8941 13.3915 11.8925 13.3914 11.8909 13.3913C11.6366 13.3729 11.3786 13.3543 11.1171 13.3359C11.118 13.4094 11.1189 13.4824 11.12 13.555C11.1234 13.7753 11.1278 13.9928 11.1337 14.2076C11.3636 14.2238 11.5921 14.2402 11.8194 14.2565C12.4312 14.3003 13.0338 14.3435 13.6282 14.3798V13.5108Z" />
<path d="M10.1128 13.2687C10.116 13.5612 10.1207 13.8516 10.1279 14.1399C10.4661 14.1614 10.8013 14.1843 11.1337 14.2076C11.1278 13.9928 11.1234 13.7753 11.12 13.555C11.1189 13.4824 11.118 13.4094 11.1171 13.3359C10.7879 13.3128 10.4531 13.2901 10.1128 13.2687Z" />
<path d="M14.6315 13.5651C14.3033 13.5502 13.9691 13.5318 13.6282 13.5108V14.3798C13.9652 14.4005 14.2996 14.4189 14.6315 14.434V13.5651Z" />
<path d="M13.325 22.1533C13.3106 22.1504 13.2718 22.1395 13.2127 22.0529C11.5791 19.6593 11.2156 17.1887 11.1337 14.2076C10.8013 14.1843 10.4661 14.1614 10.1279 14.1399C10.2076 17.3498 10.5905 20.3056 12.5086 23.1159C13.3401 24.3341 14.6315 23.3046 14.6315 21.5687V14.434C14.2996 14.4189 13.9652 14.4005 13.6282 14.3798V21.5687C13.6282 21.8644 13.5238 22.047 13.4278 22.1194C13.3811 22.1546 13.3458 22.1575 13.325 22.1533Z" />
<path d="M22.4774 12.3195C22.4703 12.3405 22.4471 12.3834 22.3313 12.437C19.9215 13.552 17.5059 13.6954 14.6315 13.5651V14.434C17.6873 14.5731 20.5383 14.4314 23.3426 13.134C24.7563 12.4799 23.7227 11.2026 21.8291 11.0644L14.6315 10.5391V11.4087L21.7639 11.9292C22.1307 11.956 22.3572 12.0844 22.4427 12.1967C22.4843 12.2513 22.4864 12.2928 22.4774 12.3195Z" />
</svg>
