<svg width="22" height="23" viewBox="0 0 22 23" fill="none" xmlns="http://www.w3.org/2000/svg">
<path d="M22 22.4524C22 22.5976 21.9536 22.7369 21.8711 22.8396C21.7886 22.9423 21.6767 23 21.56 23H0.44C0.323305 23 0.211389 22.9423 0.128873 22.8396C0.0463571 22.7369 0 22.5976 0 22.4524V0.547619C0 0.402381 0.0463571 0.263092 0.128873 0.160394C0.211389 0.0576955 0.323305 0 0.44 0C0.556695 0 0.668611 0.0576955 0.751127 0.160394C0.833643 0.263092 0.88 0.402381 0.88 0.547619V14.6748L7.1907 7.80357C7.26634 7.72205 7.36204 7.67505 7.46203 7.67032C7.56201 7.66559 7.66031 7.70342 7.7407 7.77756L14.4958 14.082L21.2707 6.70833C21.3594 6.62483 21.4702 6.58622 21.5808 6.60027C21.6915 6.61432 21.7937 6.67999 21.867 6.78407C21.9403 6.88814 21.9792 7.0229 21.976 7.16125C21.9727 7.29959 21.9274 7.43126 21.8493 7.52976L14.8093 15.1964C14.7337 15.2779 14.638 15.325 14.538 15.3297C14.438 15.3344 14.3397 15.2966 14.2593 15.2224L7.5042 8.92482L0.88 16.1287V21.9048H21.56C21.6767 21.9048 21.7886 21.9625 21.8711 22.0652C21.9536 22.1679 22 22.3071 22 22.4524Z" />
</svg>
