<svg width="24" height="25" viewBox="0 0 24 25" fill="none" xmlns="http://www.w3.org/2000/svg">
<path d="M23.3726 11.769L12.7315 1.12785C12.5331 0.928143 12.297 0.769811 12.0369 0.662036C11.7769 0.554261 11.498 0.499188 11.2165 0.500009H1.28569C0.944706 0.500009 0.617688 0.635464 0.376576 0.876576C0.135464 1.11769 9.05676e-06 1.44471 9.05676e-06 1.78569V11.7165C-0.000812451 11.998 0.054261 12.2769 0.162036 12.5369C0.269811 12.797 0.428143 13.0331 0.62785 13.2315L11.269 23.8726C11.6708 24.2743 12.2158 24.5 12.784 24.5C13.3522 24.5 13.8971 24.2743 14.2989 23.8726L23.3726 14.7989C23.7743 14.3971 24 13.8522 24 13.284C24 12.7158 23.7743 12.1708 23.3726 11.769ZM12.784 21.7512L2.57137 11.5354V3.07137H11.0354L21.248 13.284L12.784 21.7512ZM7.71409 6.49985C7.71409 6.8389 7.61356 7.17033 7.42519 7.45223C7.23683 7.73414 6.9691 7.95386 6.65586 8.08361C6.34263 8.21335 5.99795 8.2473 5.66542 8.18116C5.33289 8.11501 5.02744 7.95175 4.7877 7.712C4.54796 7.47226 4.3847 7.16682 4.31855 6.83429C4.25241 6.50176 4.28635 6.15708 4.4161 5.84384C4.54585 5.53061 4.76557 5.26288 5.04747 5.07451C5.32938 4.88615 5.66081 4.78561 5.99985 4.78561C6.4545 4.78561 6.89052 4.96622 7.212 5.2877C7.53349 5.60918 7.71409 6.04521 7.71409 6.49985Z"/>
</svg>
