<svg clip-rule="evenodd" fill-rule="evenodd" stroke-linejoin="round" stroke-miterlimit="2" viewBox="0 0 24 24" xmlns="http://www.w3.org/2000/svg"><path d="m6 18h-3c-.48 0-1-.379-1-1v-14c0-.481.38-1 1-1h14c.621 0 1 .522 1 1v3h3c.621 0 1 .522 1 1v14c0 .621-.522 1-1 1h-14c-.48 0-1-.379-1-1zm1.5-10.5v13h13v-13zm7.869 2.5s-2.136.002-4.616.003c-.414 0-.75.336-.75.75-.001 2.479-.003 4.612-.003 4.612 0 .41.335.745.75.745.414 0 .75-.334.75-.745v-2.804l4.439 4.439c.293.293.768.293 1.061 0s.293-.768 0-1.061l-4.439-4.439h2.808c.409 0 .741-.336.741-.75s-.333-.75-.741-.75zm1.131-4v-2.5h-13v13h2.5v-9.5c0-.481.38-1 1-1z" fill-rule="nonzero"/></svg>