<svg width="561" height="561" viewBox="0 0 561 561" fill="white" xmlns="http://www.w3.org/2000/svg">
<path d="M556 280.5C556 432.654 432.654 556 280.5 556C128.346 556 5 432.654 5 280.5C5 128.346 128.346 5 280.5 5C432.654 5 556 128.346 556 280.5Z" stroke="black" stroke-width="10"/>
<path d="M229 189C283.14 189 306.646 191.936 350 192.97C363.809 193.3 371.099 207.504 360.396 216.236C348.973 225.555 335.533 233.483 323.857 239.456M229 375L229 303.325C231.246 279.5 232.744 274.5 260.335 265.029" stroke="black" stroke-width="11" stroke-linecap="round"/>
<path d="M280.5 246C280.5 244.619 281.619 243.5 283 243.5H304C305.381 243.5 306.5 244.619 306.5 246V267C306.5 268.381 305.381 269.5 304 269.5H283C281.619 269.5 280.5 268.381 280.5 267V246Z" stroke="black" stroke-width="9"/>
</svg>
