<svg viewBox="0 0 29 22" fill="none" xmlns="http://www.w3.org/2000/svg">
<path d="M0 1.6671C0 1.3577 0.125602 1.06097 0.349175 0.842182C0.572748 0.623399 0.875977 0.500488 1.19216 0.500488H27.4196C27.7358 0.500488 28.039 0.623399 28.2626 0.842182C28.4862 1.06097 28.6118 1.3577 28.6118 1.6671C28.6118 1.97651 28.4862 2.27324 28.2626 2.49203C28.039 2.71081 27.7358 2.83372 27.4196 2.83372H1.19216C0.875977 2.83372 0.572748 2.71081 0.349175 2.49203C0.125602 2.27324 0 1.97651 0 1.6671ZM1.19216 12.1666H11.9216C12.2377 12.1666 12.541 12.0437 12.7645 11.825C12.9881 11.6062 13.1137 11.3094 13.1137 11C13.1137 10.6906 12.9881 10.3939 12.7645 10.1751C12.541 9.95633 12.2377 9.83341 11.9216 9.83341H1.19216C0.875977 9.83341 0.572748 9.95633 0.349175 10.1751C0.125602 10.3939 0 10.6906 0 11C0 11.3094 0.125602 11.6062 0.349175 11.825C0.572748 12.0437 0.875977 12.1666 1.19216 12.1666ZM14.3059 19.1663H1.19216C0.875977 19.1663 0.572748 19.2893 0.349175 19.508C0.125602 19.7268 0 20.0236 0 20.333C0 20.6424 0.125602 20.9391 0.349175 21.1579C0.572748 21.3767 0.875977 21.4996 1.19216 21.4996H14.3059C14.6221 21.4996 14.9253 21.3767 15.1489 21.1579C15.3724 20.9391 15.498 20.6424 15.498 20.333C15.498 20.0236 15.3724 19.7268 15.1489 19.508C14.9253 19.2893 14.6221 19.1663 14.3059 19.1663Z" />
<path d="M17.7699 7.61368C17.7206 7.65844 17.681 7.71371 17.6537 7.7758C17.6264 7.83789 17.6121 7.90535 17.6118 7.97369V18.0541C17.6118 18.1815 17.66 18.3036 17.746 18.3936C17.8319 18.4836 17.9485 18.5342 18.07 18.5342C18.1916 18.5342 18.3081 18.4836 18.3941 18.3936C18.48 18.3036 18.5283 18.1815 18.5283 18.0541V15.4002C20.0629 14.1306 21.385 14.8152 22.9075 15.6048C23.847 16.0915 24.8586 16.6159 25.9435 16.6159C26.7415 16.6159 27.5784 16.3309 28.4537 15.5358C28.503 15.4911 28.5426 15.4358 28.5698 15.3737C28.5971 15.3116 28.6114 15.2442 28.6118 15.1758V7.97369C28.6116 7.88156 28.586 7.79143 28.5383 7.71407C28.4905 7.63672 28.4224 7.5754 28.3423 7.53744C28.2621 7.49948 28.1733 7.48648 28.0863 7.5C27.9993 7.51352 27.9178 7.55298 27.8516 7.61368C26.2477 9.06754 24.889 8.36311 23.3143 7.54647C21.6828 6.69924 19.8332 5.74099 17.7699 7.61368ZM27.6935 14.949C26.1589 16.2187 24.8368 15.5334 23.3143 14.7444C21.8822 14.0034 20.2892 13.1765 18.5283 14.2404V8.2011C20.0629 6.93145 21.385 7.61608 22.9075 8.40511C24.3396 9.14615 25.9332 9.97298 27.6935 8.90914V14.949Z" />
</svg>
