<svg width="24" height="23" viewBox="0 0 24 23" fill="none" xmlns="http://www.w3.org/2000/svg">
<path d="M12.9225 4.46792L5.60069 6.26321L10.7765 10.4811L18.0983 8.35655L12.9225 4.46792Z"/>
<path d="M18.0983 16.5674V8.35655L10.7765 10.4811V18.5475L18.0983 16.5674Z"/>
<path d="M5.60069 6.26321V14.6588L10.7765 18.5475V10.4811L5.60069 6.26321Z"/>
<path fill-rule="evenodd" clip-rule="evenodd" d="M10.7765 18.5475L18.0983 16.5674V8.35655L12.9225 4.46792L5.60069 6.26321V14.6588L10.7765 18.5475ZM11.0928 17.8064L17.4655 16.083V8.86961L11.0928 10.7187V17.8064ZM10.8477 10.1309L17.022 8.3394L12.7821 5.15389L6.60028 6.66964L10.8477 10.1309ZM6.23348 7.18703L10.4601 10.6314V17.5183L6.23348 14.3428V7.18703Z" />
<path fill-rule="evenodd" clip-rule="evenodd" d="M0.5 11.5L1.51239 10.4876L2.18356 11.1588L1.84235 11.5L2.18356 11.8412L1.51239 12.5124L0.5 11.5ZM4.21397 9.12838L3.53716 9.80518L2.86599 9.13401L3.54279 8.45721L4.21397 9.12838ZM10.3052 3.03716L9.62838 3.71397L8.95721 3.04279L9.63401 2.36599L10.3052 3.03716ZM12 1.34235L11.6588 1.68356L10.9876 1.01239L12 0L13.0124 1.01239L12.3412 1.68356L12 1.34235ZM3.53716 13.1948L4.21397 13.8716L3.54279 14.5428L2.86599 13.866L3.53716 13.1948ZM14.3716 3.71397L13.6948 3.03716L14.366 2.36599L15.0428 3.04279L14.3716 3.71397ZM9.63401 20.634L8.95721 19.9572L9.62838 19.286L10.3052 19.9628L9.63401 20.634ZM20.4572 8.45721L21.134 9.13401L20.4628 9.80518L19.786 9.12838L20.4572 8.45721ZM10.9876 21.9876L11.6588 21.3164L12 21.6577L12.3412 21.3164L13.0124 21.9876L12 23L10.9876 21.9876ZM22.4876 10.4876L23.5 11.5L22.4876 12.5124L21.8164 11.8412L22.1577 11.5L21.8164 11.1588L22.4876 10.4876ZM15.0428 19.9572L14.366 20.634L13.6948 19.9628L14.3716 19.286L15.0428 19.9572ZM21.134 13.866L20.4572 14.5428L19.786 13.8716L20.4628 13.1948L21.134 13.866Z" />
<path d="M17.0783 12.5346C17.2581 13.4797 16.2102 14.4729 14.7379 14.753C13.2655 15.0332 11.9262 14.4941 11.7463 13.5491C11.5665 12.604 12.6143 11.6108 14.0867 11.3306C15.5591 11.0505 16.8984 11.5895 17.0783 12.5346Z" />
<path d="M16.0588 13.1911C16.0588 13.7515 15.6045 14.2058 15.0441 14.2058C14.4837 14.2058 14.0294 13.7515 14.0294 13.1911C14.0294 12.6307 14.4837 12.1764 15.0441 12.1764C15.6045 12.1764 16.0588 12.6307 16.0588 13.1911Z" />
</svg>
