<svg width="21" height="17" viewBox="0 0 21 17" fill="none" xmlns="http://www.w3.org/2000/svg">
<path d="M15.4 5.13736V4.64999C15.4 2.45549 12.0899 0.799988 7.7 0.799988C3.31013 0.799988 0 2.45549 0 4.64999V8.14999C0 9.97786 2.29688 11.4304 5.6 11.8652V12.35C5.6 14.5445 8.91012 16.2 13.3 16.2C17.6899 16.2 21 14.5445 21 12.35V8.84999C21 7.03874 18.7757 5.58449 15.4 5.13736ZM19.6 8.84999C19.6 10.0067 16.9059 11.3 13.3 11.3C12.9736 11.3 12.6499 11.2886 12.3305 11.2676C14.2179 10.5799 15.4 9.46249 15.4 8.14999V6.55224C18.0136 6.94161 19.6 7.99861 19.6 8.84999ZM5.6 10.4469V8.36524C6.29631 8.45597 6.99781 8.50098 7.7 8.49999C8.40219 8.50098 9.10369 8.45597 9.8 8.36524V10.4469C9.10473 10.5496 8.40282 10.6008 7.7 10.6C6.99718 10.6008 6.29527 10.5496 5.6 10.4469ZM14 6.91886V8.14999C14 8.88411 12.9141 9.67249 11.2 10.1511V8.10624C12.3296 7.83236 13.286 7.42461 14 6.91886ZM7.7 2.19999C11.3059 2.19999 14 3.49324 14 4.64999C14 5.80674 11.3059 7.09999 7.7 7.09999C4.09412 7.09999 1.4 5.80674 1.4 4.64999C1.4 3.49324 4.09412 2.19999 7.7 2.19999ZM1.4 8.14999V6.91886C2.114 7.42461 3.07037 7.83236 4.2 8.10624V10.1511C2.48587 9.67249 1.4 8.88411 1.4 8.14999ZM7 12.35V11.9851C7.23012 11.9939 7.46287 12 7.7 12C8.0395 12 8.37113 11.9886 8.69662 11.9694C9.05823 12.0988 9.42655 12.2086 9.8 12.2984V14.3511C8.08587 13.8725 7 13.0841 7 12.35ZM11.2 14.6469V12.56C11.8961 12.6536 12.5977 12.7003 13.3 12.7C14.0022 12.701 14.7037 12.656 15.4 12.5652V14.6469C14.0074 14.851 12.5926 14.851 11.2 14.6469ZM16.8 14.3511V12.3062C17.9296 12.0324 18.886 11.6246 19.6 11.1189V12.35C19.6 13.0841 18.5141 13.8725 16.8 14.3511Z" />
</svg>
