<svg width="40" height="40" viewBox="0 0 205 205" fill="none" xmlns="http://www.w3.org/2000/svg">
<path d="M8 44C8 24.1177 24.1178 8 44 8H161C180.882 8 197 24.1178 197 44V161C197 180.882 180.882 197 161 197H44C24.1177 197 8 180.882 8 161V44Z" fill="white"/>
<path fill-rule="evenodd" clip-rule="evenodd" d="M44 0H161C185.301 0 205 19.6995 205 44V161C205 185.301 185.301 205 161 205H44C19.6995 205 0 185.301 0 161V44C0 19.6995 19.6995 0 44 0ZM44 8C24.1178 8 8 24.1177 8 44V161C8 180.882 24.1177 197 44 197H161C180.882 197 197 180.882 197 161V44C197 24.1178 180.882 8 161 8H44Z" fill="black"/>
<path fill-rule="evenodd" clip-rule="evenodd" d="M117.961 44.6189C118.056 44.5748 118.74 44.2552 119.645 44.2552C120.513 44.2552 121.171 44.5487 121.277 44.5961C121.282 44.5981 121.285 44.5997 121.288 44.6008C121.505 44.6951 121.678 44.7915 121.773 44.8467C121.975 44.9628 122.16 45.0869 122.292 45.1781C122.572 45.3711 122.897 45.6136 123.219 45.86C123.875 46.3625 124.692 47.015 125.472 47.646C126.258 48.2817 127.029 48.9154 127.603 49.3887C127.89 49.6258 128.129 49.8235 128.296 49.9622L128.56 50.1819C128.56 50.1819 128.561 50.1823 126.091 53.1459L128.56 50.1819C130.257 51.5962 130.487 54.1188 129.073 55.8159C127.715 57.4459 125.334 57.7219 123.645 56.4883V58.9784C123.645 62.5893 121.698 65.9214 118.55 67.6934L103.841 75.9739L85.7343 85.5651C85.407 85.7385 85.2024 86.0785 85.2024 86.4489L85.2031 92.2474C85.2034 94.4565 83.4128 96.2476 81.2036 96.2479C78.9945 96.2481 77.2034 94.4575 77.2031 92.2484L77.2024 86.4499C77.202 83.1165 79.044 80.056 81.9896 78.4957L100.006 68.9524L114.626 60.7221C115.254 60.3681 115.645 59.7014 115.645 58.9784V56.5914L115.643 56.5924C113.959 58.0213 111.434 57.8141 110.005 56.1293C108.576 54.4446 108.784 51.9204 110.469 50.4914L112.927 53.3897C110.469 50.4914 110.469 50.4914 110.469 50.4914L110.743 50.2591C110.917 50.1126 111.164 49.9038 111.462 49.6534C112.058 49.1532 112.858 48.4839 113.672 47.8126C114.48 47.1459 115.326 46.4581 116.002 45.9293C116.335 45.6698 116.667 45.4167 116.95 45.2163C117.084 45.1216 117.269 44.9943 117.469 44.8756C117.564 44.8194 117.736 44.7204 117.952 44.623C117.954 44.6221 117.957 44.6208 117.961 44.6189ZM128.305 90.3811C129.42 92.2885 128.778 94.7383 126.87 95.8529L88.2707 118.411C86.3634 119.526 83.9136 118.883 82.7989 116.976C81.6842 115.069 82.3268 112.619 84.2341 111.504L122.834 88.9459C124.741 87.8313 127.191 88.4738 128.305 90.3811ZM124.632 110.587C126.841 110.586 128.633 112.377 128.633 114.586L128.634 120.385C128.634 123.718 126.792 126.779 123.846 128.339L105.83 137.882L88.1536 147.833C86.2286 148.917 83.7895 148.235 82.7058 146.31C81.6221 144.385 82.3041 141.946 84.2292 140.862L101.995 130.861L120.102 121.27C120.429 121.096 120.634 120.756 120.634 120.386L120.633 114.587C120.633 112.378 122.423 110.587 124.632 110.587Z" fill="black"/>
</svg>
