<svg width="31" height="30" viewBox="0 0 31 30" fill="none" xmlns="http://www.w3.org/2000/svg">
<path d="M28.55 15.24C28.55 22.3313 22.8013 28.08 15.71 28.08C8.61866 28.08 2.87 22.3313 2.87 15.24C2.87 8.14866 8.61866 2.4 15.71 2.4C22.8013 2.4 28.55 8.14866 28.55 15.24Z" fill="#356B9D"/>
<path d="M17.5131 13.1788L17.3814 16.3266L17.3055 19.0237L20.1252 20.4575L20.1419 17.7404L20.2146 14.5727L17.5131 13.1788Z" fill="white"/>
<path d="M17.5131 13.1788L20.2146 14.5727L20.2146 10.6229L17.5233 9.28426L17.5131 13.1788Z" fill="white"/>
<path d="M17.2015 22.4592L20.0297 23.9127L20.1252 20.4575L17.3055 19.0237L17.2015 22.4592Z" fill="white"/>
<path d="M14.3633 20.955L17.2015 22.4592L17.3055 19.0237L14.4705 17.5347L14.3633 20.955Z" fill="white"/>
<path d="M11.5384 19.4212L14.3633 20.955L14.4705 17.5347L11.6454 16.0142L11.5384 19.4212Z" fill="white"/>
<path d="M14.4705 17.5347L14.4712 14.7141L11.6454 13.2331L11.6454 16.0142L14.4705 17.5347Z" fill="white"/>
<path d="M11.6454 13.2331L14.4712 14.7141L14.5173 12.0524L11.6905 10.6229L11.6454 13.2331Z" fill="white"/>
<path d="M11.6905 10.6229L14.5173 12.0524L14.5872 8.00651L11.763 6.43189L11.6905 10.6229Z" fill="white"/>
<path d="M17.0631 13.4388L16.9314 16.5866L16.8556 19.2837L19.6753 20.7175L19.692 18.0004L19.7646 14.8327L17.0631 13.4388Z" fill="#EC7F00"/>
<path d="M17.0631 13.4388L19.7646 14.8327L19.7646 10.8829L17.0734 9.54426L17.0631 13.4388Z" fill="#EC7F00"/>
<path d="M16.7516 22.7192L19.5797 24.1727L19.6753 20.7175L16.8556 19.2837L16.7516 22.7192Z" fill="#EC7F00"/>
<path d="M13.9134 21.215L16.7516 22.7192L16.8556 19.2837L14.0206 17.7947L13.9134 21.215Z" fill="#EC7F00"/>
<path d="M11.0884 19.6812L13.9134 21.215L14.0206 17.7947L11.1954 16.2742L11.0884 19.6812Z" fill="#EC7F00"/>
<path d="M14.0206 17.7947L14.0213 14.9741L11.1954 13.4931L11.1954 16.2742L14.0206 17.7947Z" fill="#EC7F00"/>
<path d="M11.1954 13.4931L14.0213 14.9741L14.0673 12.3124L11.2405 10.8829L11.1954 13.4931Z" fill="#EC7F00"/>
<path d="M11.2405 10.8829L14.0673 12.3124L14.1373 8.26651L11.313 6.69189L11.2405 10.8829Z" fill="#EC7F00"/>
<path d="M16.5879 13.6736L16.4562 16.8214L16.3804 19.5185L19.2 20.9523L19.2168 18.2352L19.2894 15.0675L16.5879 13.6736Z" fill="white"/>
<path d="M16.5879 13.6736L19.2894 15.0675L19.2894 11.1178L16.5981 9.77908L16.5879 13.6736Z" fill="white"/>
<path d="M16.2763 22.9541L19.1045 24.4076L19.2 20.9523L16.3804 19.5185L16.2763 22.9541Z" fill="white"/>
<path d="M13.4381 21.4498L16.2763 22.9541L16.3804 19.5185L13.5454 18.0295L13.4381 21.4498Z" fill="white"/>
<path d="M10.6132 19.916L13.4381 21.4498L13.5454 18.0295L10.7202 16.5091L10.6132 19.916Z" fill="white"/>
<path d="M13.5454 18.0295L13.5461 15.2089L10.7202 13.7279L10.7202 16.5091L13.5454 18.0295Z" fill="white"/>
<path d="M10.7202 13.7279L13.5461 15.2089L13.5921 12.5472L10.7653 11.1178L10.7202 13.7279Z" fill="white"/>
<path d="M10.7653 11.1178L13.5921 12.5472L13.662 8.50133L10.8378 6.92671L10.7653 11.1178Z" fill="white"/>
</svg>
