<svg width="50" height="59" viewBox="0 0 50 59" fill="none" xmlns="http://www.w3.org/2000/svg">
<path d="M48.3386 16.6225L33.4636 1.7475C33.1676 1.45111 32.816 1.21598 32.4291 1.05554C32.0421 0.895108 31.6273 0.81252 31.2084 0.8125H5.70842C4.29946 0.8125 2.9482 1.37221 1.95192 2.3685C0.955628 3.36478 0.39592 4.71604 0.39592 6.125V52.875C0.39592 54.284 0.955628 55.6352 1.95192 56.6315C2.9482 57.6278 4.29946 58.1875 5.70842 58.1875H43.9584C45.3674 58.1875 46.7186 57.6278 47.7149 56.6315C48.7112 55.6352 49.2709 54.284 49.2709 52.875V18.875C49.2709 18.0303 48.9355 17.2201 48.3386 16.6225ZM33.3334 10.6406L39.4428 16.75H33.3334V10.6406ZM6.77092 51.8125V7.1875H26.9584V19.9375C26.9584 20.7829 27.2942 21.5936 27.892 22.1914C28.4898 22.7892 29.3005 23.125 30.1459 23.125H42.8959V51.8125H6.77092Z" fill="#3A3A3A"/>
</svg>
