<svg width="26" height="20" viewBox="0 0 26 20" fill="none" xmlns="http://www.w3.org/2000/svg">
<path d="M23 0H3C2.20435 0 1.44129 0.316071 0.87868 0.87868C0.316071 1.44129 0 2.20435 0 3V17C0 17.7956 0.316071 18.5587 0.87868 19.1213C1.44129 19.6839 2.20435 20 3 20H23C23.7956 20 24.5587 19.6839 25.1213 19.1213C25.6839 18.5587 26 17.7956 26 17V3C26 2.20435 25.6839 1.44129 25.1213 0.87868C24.5587 0.316071 23.7956 0 23 0ZM2 6H24V8H17.8988C17.4377 8.00025 16.9909 8.15977 16.634 8.45156C16.2771 8.74334 16.0319 9.14948 15.94 9.60125C15.7999 10.2768 15.4313 10.8833 14.8962 11.3188C14.3612 11.7543 13.6924 11.9921 13.0025 11.9921C12.3126 11.9921 11.6438 11.7543 11.1088 11.3188C10.5737 10.8833 10.2051 10.2768 10.065 9.60125C9.97291 9.14864 9.72701 8.74186 9.36905 8.44997C9.01108 8.15809 8.56313 7.9991 8.10125 8H2V6ZM3 2H23C23.2652 2 23.5196 2.10536 23.7071 2.29289C23.8946 2.48043 24 2.73478 24 3V4H2V3C2 2.73478 2.10536 2.48043 2.29289 2.29289C2.48043 2.10536 2.73478 2 3 2ZM23 18H3C2.73478 18 2.48043 17.8946 2.29289 17.7071C2.10536 17.5196 2 17.2652 2 17V10H8.1C8.33012 11.1296 8.94351 12.145 9.83633 12.8743C10.7292 13.6036 11.8466 14.0019 12.9994 14.0019C14.1522 14.0019 15.2696 13.6036 16.1624 12.8743C17.0552 12.145 17.6686 11.1296 17.8988 10H24V17C24 17.2652 23.8946 17.5196 23.7071 17.7071C23.5196 17.8946 23.2652 18 23 18Z" />
</svg>
